<svg width="18" height="18" viewBox="0 0 18 18" fill="none" xmlns="http://www.w3.org/2000/svg">
<path d="M1.92859 7.29744C1.92859 10.6122 4.62557 13.3091 7.94031 13.3091C9.25112 13.3091 10.449 12.8873 11.4359 12.1791L15.1423 15.8932C15.3156 16.0664 15.5416 16.1493 15.7827 16.1493C16.295 16.1493 16.649 15.765 16.649 15.2603C16.649 15.0193 16.5586 14.8008 16.4004 14.6426L12.7165 10.9361C13.4925 9.92662 13.952 8.66855 13.952 7.29744C13.952 3.98271 11.255 1.28572 7.94031 1.28572C4.62557 1.28572 1.92859 3.98271 1.92859 7.29744ZM3.21682 7.29744C3.21682 4.69086 5.33373 2.57395 7.94031 2.57395C10.5469 2.57395 12.6638 4.69086 12.6638 7.29744C12.6638 9.90399 10.5469 12.0209 7.94031 12.0209C5.33373 12.0209 3.21682 9.90399 3.21682 7.29744Z" fill="#7D7D7D"/>
</svg>
