<svg width="24" height="20" viewBox="0 0 24 20" fill="none" xmlns="http://www.w3.org/2000/svg">
<mask id="mask0_493_369" style="mask-type:alpha" maskUnits="userSpaceOnUse" x="0" y="0" width="24" height="20">
<rect width="24" height="20" fill="#D9D9D9"/>
</mask>
<g mask="url(#mask0_493_369)">
<path d="M11.3846 16.25C11.1333 16.25 10.9231 16.1794 10.7539 16.0383C10.5846 15.8974 10.4999 15.7222 10.4999 15.5127V10.6892L4.9019 4.76292C4.70956 4.54917 4.68165 4.32694 4.81815 4.09625C4.95481 3.86542 5.18531 3.75 5.50965 3.75H18.4901C18.8145 3.75 19.045 3.86542 19.1816 4.09625C19.3181 4.32694 19.2902 4.54917 19.0979 4.76292L13.4999 10.6892V15.5127C13.4999 15.7222 13.4152 15.8974 13.2459 16.0383C13.0767 16.1794 12.8665 16.25 12.6151 16.25H11.3846ZM11.9999 10.25L16.9499 5H7.0499L11.9999 10.25Z" fill="#6D6A5D"/>
</g>
</svg>
